# xmcd
#
# Track frame offsets: 
#        150
#        14184
#        29634
#        42191
#        54716
#        66791
#        77245
#        91420
#        102520
#        115616
#        129297
#        141541
#
# Disc length: 2004 seconds
#
# Revision: 0
# Processed by: cddbd v1.5.2PL0 Copyright (c) Steve Scherf et al.
# Submitted via: ExactAudioCopy v0.99pb5
#
DISCID=ad07d20c
DTITLE=Brenda Lee  - Memphis Portrait  FLAC
DYEAR=1900
DGENRE=
TTITLE0=Give a Hand, Take a Hand
TTITLE1=Leaving on a Jet Plane
TTITLE2=So Close to Heaven
TTITLE3=Games People Play
TTITLE4=I Think I Love You Again
TTITLE5=Too Heavy to Carry
TTITLE6=Walk a Mile in My Shoes
TTITLE7=Hello Love
TTITLE8=Proud Mary
TTITLE9=Do Right Woman
TTITLE10=I'm Gonna Keep on Loving You
TTITLE11=Sisters In Sorrow
EXTD=
EXTT0=
EXTT1=
EXTT2=
EXTT3=
EXTT4=
EXTT5=
EXTT6=
EXTT7=
EXTT8=
EXTT9=
EXTT10=
EXTT11=
PLAYORDER=
